<svg xmlns="http://www.w3.org/2000/svg" viewBox="0 0 600 150">
  <rect width="600" height="150" fill="#FFDD00"/>
  <g transform="translate(30, 30)">
    <circle cx="45" cy="45" r="45" fill="#000000"/>
    <path d="M45,10 C25,10 10,25 10,45 C10,65 25,80 45,80 C65,80 80,65 80,45 C80,25 65,10 45,10 Z M45,75 C28,75 15,62 15,45 C15,28 28,15 45,15 C62,15 75,28 75,45 C75,62 62,75 45,75 Z" fill="#FFDD00"/>
    <path d="M30,30 C25,35 22,40 22,45 C22,50 25,55 30,60 L45,45 L30,30 Z" fill="#FFDD00"/>
    <path d="M60,30 C65,35 68,40 68,45 C68,50 65,55 60,60 L45,45 L60,30 Z" fill="#FFDD00"/>
    <path d="M45,20 C40,25 35,28 30,28 C25,28 20,25 15,20 L45,50 L45,20 Z" fill="#FFDD00"/>
    <path d="M45,70 C40,65 35,62 30,62 C25,62 20,65 15,70 L45,40 L45,70 Z" fill="#FFDD00"/>
  </g>
  <g transform="translate(150, 75)">
    <path d="M0,0 L30,0 L30,-30 L50,-30 L50,0 L80,0 L80,-50 L0,-50 Z" fill="#000000"/>
    <path d="M90,0 L120,0 L120,-20 L140,-50 L110,-50 L100,-30 L90,-50 L60,-50 L90,-10 Z" fill="#000000"/>
    <path d="M150,0 L180,0 L180,-20 L190,-20 L200,0 L230,0 L215,-25 L230,-50 L200,-50 L190,-30 L180,-30 L180,-50 L150,-50 Z" fill="#000000"/>
    <path d="M240,0 L270,0 L270,-20 L290,-20 L290,0 L320,0 L320,-50 L290,-50 L290,-30 L270,-30 L270,-50 L240,-50 Z" fill="#000000"/>
    <path d="M330,0 L360,0 L360,-20 L370,-20 L380,0 L410,0 L395,-25 L410,-50 L380,-50 L370,-30 L360,-30 L360,-50 L330,-50 Z" fill="#000000"/>
    <path d="M420,0 L450,0 L450,-50 L420,-50 Z" fill="#000000"/>
  </g>
</svg>