<svg xmlns="http://www.w3.org/2000/svg" viewBox="0 0 512 512">
  <circle cx="256" cy="256" r="256" fill="#1f0d20"/>
  <path d="M256 80c-97.2 0-176 78.8-176 176s78.8 176 176 176 176-78.8 176-176S353.2 80 256 80zm0 32c79.4 0 144 64.6 144 144s-64.6 144-144 144-144-64.6-144-144 64.6-144 144-144z" fill="#3a1c3d"/>
  <path d="M256 144c-61.9 0-112 50.1-112 112s50.1 112 112 112 112-50.1 112-112-50.1-112-112-112zm0 32c44.1 0 80 35.9 80 80s-35.9 80-80 80-80-35.9-80-80 35.9-80 80-80z" fill="#5a2c5d"/>
  <circle cx="256" cy="256" r="48" fill="#7a3c7d"/>
</svg>