<svg xmlns="http://www.w3.org/2000/svg" viewBox="0 0 512 512">
  <circle cx="256" cy="256" r="256" fill="#FFCC00"/>
  <g transform="translate(106, 180) scale(0.6)">
    <circle cx="80" cy="80" r="80" fill="#000000"/>
    <path d="M80 20 C60 20, 40 40, 40 80 C40 120, 60 140, 80 140 C100 140, 120 120, 120 80 C120 40, 100 20, 80 20 Z" fill="#FFCC00"/>
    <path d="M50 70 C60 50, 80 50, 90 70 L80 90 L70 70 Z" fill="#000000"/>
    <path d="M70 90 C80 110, 100 110, 110 90 L100 70 L90 90 Z" fill="#000000"/>
  </g>
  <path d="M200 256 L220 256 L220 310 L270 310 L270 256 L290 256 L290 380 L270 380 L270 330 L220 330 L220 380 L200 380 Z" fill="#000000"/>
  <path d="M300 256 L320 256 L350 340 L380 256 L400 256 L350 380 Z" fill="#000000"/>
  <path d="M410 256 L430 256 L430 380 L410 380 Z" fill="#000000"/>
</svg>